<?xml version="1.0" encoding="UTF-8" standalone="no"?>
<!-- Created with Inkscape (http://www.inkscape.org/) -->

<svg
   xmlns:dc="http://purl.org/dc/elements/1.1/"
   xmlns:cc="http://creativecommons.org/ns#"
   xmlns:rdf="http://www.w3.org/1999/02/22-rdf-syntax-ns#"
   xmlns:svg="http://www.w3.org/2000/svg"
   xmlns="http://www.w3.org/2000/svg"
   xmlns:sodipodi="http://sodipodi.sourceforge.net/DTD/sodipodi-0.dtd"
   xmlns:inkscape="http://www.inkscape.org/namespaces/inkscape"
   version="1.1"
   id="svg3769"
   width="297mm"
   height="210mm"
   viewBox="0 0 1122.5197 793.7008"
   sodipodi:docname="drone sketch.svg"
   inkscape:version="0.92.2 (5c3e80d, 2017-08-06)"
   inkscape:export-filename="/home/ruben/Development/Drones/drone sketch single.png"
   inkscape:export-xdpi="96"
   inkscape:export-ydpi="96">
  <metadata
     id="metadata3775">
    <rdf:RDF>
      <cc:Work
         rdf:about="">
        <dc:format>image/svg+xml</dc:format>
        <dc:type
           rdf:resource="http://purl.org/dc/dcmitype/StillImage" />
        <dc:title />
      </cc:Work>
    </rdf:RDF>
  </metadata>
  <defs
     id="defs3773" />
  <sodipodi:namedview
     pagecolor="#ffffff"
     bordercolor="#666666"
     borderopacity="1"
     objecttolerance="10"
     gridtolerance="10"
     guidetolerance="10"
     inkscape:pageopacity="0"
     inkscape:pageshadow="2"
     inkscape:window-width="1366"
     inkscape:window-height="740"
     id="namedview3771"
     showgrid="true"
     units="mm"
     showguides="true"
     inkscape:guide-bbox="true"
     inkscape:zoom="0.6363961"
     inkscape:cx="686.80647"
     inkscape:cy="420.59046"
     inkscape:window-x="0"
     inkscape:window-y="0"
     inkscape:window-maximized="1"
     inkscape:current-layer="svg3769"
     inkscape:lockguides="false">
    <inkscape:grid
       type="xygrid"
       id="grid3779"
       dotted="true"
       units="mm"
       spacingx="3.7795276"
       spacingy="3.7795276"
       empspacing="2" />
  </sodipodi:namedview>
  <rect
     style="fill:#ffffff;fill-opacity:1;stroke:none;stroke-width:2.65260863;stroke-linejoin:bevel;stroke-miterlimit:4;stroke-dasharray:7.9578266, 7.9578266;stroke-dashoffset:0;stroke-opacity:1"
     id="rect834"
     width="560"
     height="560"
     x="120"
     y="113.70079" />
  <path
     style="fill:none;stroke:#000000;stroke-width:1;stroke-miterlimit:4;stroke-dasharray:3, 3;stroke-dashoffset:0;stroke-opacity:1"
     d="M 272.12599,-430.86616 H 438.4252 l 0,68.0315 H 272.12599 Z"
     id="rect3785"
     inkscape:connector-curvature="0"
     sodipodi:nodetypes="ccccc"
     transform="scale(1,-1)" />
  <path
     style="fill:none;stroke:#000000;stroke-width:1;stroke-miterlimit:4;stroke-dasharray:3, 3;stroke-dashoffset:0;stroke-opacity:1"
     d="m 461.10237,-430.86616 h 68.03149 v 68.0315 h -68.03149 z"
     id="rect3785-3"
     inkscape:connector-curvature="0"
     sodipodi:nodetypes="ccccc"
     transform="scale(1,-1)" />
  <path
     style="fill:none;stroke:#000000;stroke-width:2.00207067;stroke-linejoin:bevel;stroke-miterlimit:4;stroke-dasharray:none;stroke-opacity:1"
     d="m 544.25197,347.71655 v 98.26772 h -60.47244 l 120.94489,120.94488 c 20.34836,0 36.84398,17.44692 36.84398,37.79528 0,20.34836 -16.49561,36.84396 -36.84397,36.84396 -20.34836,0 -37.79529,-16.4956 -37.79529,-36.84396 L 400.62993,445.98427 H 385.51182 L 226.77166,604.72443 c 0,20.34836 -17.44692,36.84396 -37.79528,36.84396 -20.34836,0 -36.84397,-16.4956 -36.84397,-36.84396 0,-20.34836 16.49561,-37.79528 36.84397,-37.79528 L 309.92126,445.98427 h -52.91338 v -98.26772 h 52.91338 L 188.97638,226.77167 c -20.34836,0 -36.74179,-16.86867 -36.74179,-37.21703 0,-20.34836 16.49561,-36.84397 36.84397,-36.84397 20.34836,0 37.6931,15.91736 37.6931,36.26572 l 158.74016,158.74016 h 22.67716 L 566.92914,188.97639 c 0,-20.34836 17.44693,-36.84398 37.79529,-36.84398 20.34836,0 36.84397,16.49561 36.84397,36.84397 0,20.34836 -16.49562,37.79529 -36.84398,37.79529 L 483.77953,347.71655 Z"
     id="rect4757"
     inkscape:connector-curvature="0"
     sodipodi:nodetypes="ccccssccccssccccccssccccssccc" />
  <path
     style="fill:none;stroke:#000000;stroke-width:1px;stroke-linecap:butt;stroke-linejoin:miter;stroke-opacity:1"
     d="m 211.65355,188.97639 c 0,-7.55906 -10.38656,-2.83074 -15.11097,-7.55515 -4.72441,-4.72441 -0.10521,-15.07292 -7.66441,-15.07292 -7.55906,0 -2.7571,10.33711 -7.48151,15.06152 -4.72441,4.72441 -15.09745,0.007 -15.09745,7.56655 0,7.55905 11.39718,3.73265 15.12303,7.56385 3.72782,3.83323 -0.005,15.11332 7.55414,15.11332 7.55906,0 3.80569,-11.37086 7.55487,-15.117 3.78371,-3.78064 15.1223,-0.001 15.1223,-7.56017 z"
     id="path4811"
     inkscape:connector-curvature="0"
     sodipodi:nodetypes="sssssssss" />
  <path
     style="fill:none;stroke:#000000;stroke-width:1px;stroke-linecap:butt;stroke-linejoin:miter;stroke-opacity:1"
     d="m 211.85434,604.52362 c 0,-7.55906 -10.38656,-2.83074 -15.11097,-7.55515 -4.72441,-4.72441 -0.007,-15.12202 -7.5662,-15.12202 -7.55906,0 -2.85531,10.38621 -7.57972,15.11062 -4.72441,4.72441 -15.09745,0.007 -15.09745,7.56655 0,7.55905 11.39718,3.73265 15.12303,7.56385 3.72782,3.83323 -0.005,15.11332 7.55414,15.11332 7.55906,0 3.80569,-11.37086 7.55487,-15.117 3.78371,-3.78064 15.1223,-10e-4 15.1223,-7.56017 z"
     id="path4811-7"
     inkscape:connector-curvature="0"
     sodipodi:nodetypes="sssssssss" />
  <path
     style="fill:none;stroke:#000000;stroke-width:1px;stroke-linecap:butt;stroke-linejoin:miter;stroke-opacity:1"
     d="m 626.85434,188.97639 c 0,-7.55906 -10.38656,-2.83074 -15.11097,-7.55515 -4.72441,-4.72441 -0.007,-15.12202 -7.5662,-15.12202 -7.55906,0 -2.85531,10.38621 -7.57972,15.11062 -4.72441,4.72441 -15.09745,0.007 -15.09745,7.56655 0,7.55905 11.39718,3.73265 15.12303,7.56385 3.72782,3.83323 -0.005,15.11332 7.55414,15.11332 7.55906,0 3.80569,-11.37086 7.55487,-15.117 3.78371,-3.78064 15.1223,-0.001 15.1223,-7.56017 z"
     id="path4811-0"
     inkscape:connector-curvature="0"
     sodipodi:nodetypes="sssssssss" />
  <path
     style="fill:none;stroke:#000000;stroke-width:1px;stroke-linecap:butt;stroke-linejoin:miter;stroke-opacity:1"
     d="m 627.05513,604.52362 c 0,-7.55906 -10.38656,-2.83074 -15.11097,-7.55515 -4.72441,-4.72441 -0.007,-15.12202 -7.5662,-15.12202 -7.55906,0 -2.85531,10.38621 -7.57972,15.11062 -4.72441,4.72441 -15.09745,0.007 -15.09745,7.56655 0,7.55905 11.39718,3.73265 15.12303,7.56385 3.72782,3.83323 -0.005,15.11332 7.55414,15.11332 7.55906,0 3.80569,-11.37086 7.55487,-15.117 3.78371,-3.78064 15.1223,-10e-4 15.1223,-7.56017 z"
     id="path4811-7-9"
     inkscape:connector-curvature="0"
     sodipodi:nodetypes="sssssssss" />
  <path
     style="fill:none;stroke:#000000;stroke-width:1px;stroke-linecap:butt;stroke-linejoin:miter;stroke-opacity:1"
     d="m 574.4882,204.0945 15.11811,15.11811 0,7.55906 -60.47245,60.47244 v -45.35433 l 37.79528,-37.79528 z"
     id="path4869"
     inkscape:connector-curvature="0"
     sodipodi:nodetypes="ccccccc" />
  <path
     style="fill:none;stroke:#000000;stroke-width:1px;stroke-linecap:butt;stroke-linejoin:miter;stroke-opacity:1"
     d="m 514.01575,257.00789 v 45.35433 l -45.35433,45.35433 -30.23622,0 -7.55905,-7.55906 z"
     id="path4871"
     inkscape:connector-curvature="0"
     sodipodi:nodetypes="cccccc" />
  <path
     style="fill:none;stroke:#000000;stroke-width:1px;stroke-linecap:butt;stroke-linejoin:miter;stroke-opacity:1"
     d="m 362.83465,340.15749 -7.55906,7.55906 h -30.23622 l -45.35433,-45.35433 v -45.35433 z"
     id="path4873"
     inkscape:connector-curvature="0"
     sodipodi:nodetypes="cccccc" />
  <path
     style="fill:none;stroke:#000000;stroke-width:1px;stroke-linecap:butt;stroke-linejoin:miter;stroke-opacity:1"
     d="m 264.56693,241.88978 -37.79527,-37.79528 -7.55906,0 -15.11811,15.11811 0,7.55906 60.47244,60.47244 z"
     id="path4875"
     inkscape:connector-curvature="0"
     sodipodi:nodetypes="ccccccc" />
  <path
     style="fill:none;stroke:#000000;stroke-width:1px;stroke-linecap:butt;stroke-linejoin:miter;stroke-opacity:1"
     d="m 325.03937,445.98427 h 30.23622 l 7.55906,7.55905 -83.14961,83.14961 V 491.3386 Z"
     id="path4877"
     inkscape:connector-curvature="0"
     sodipodi:nodetypes="cccccc" />
  <path
     style="fill:none;stroke:#000000;stroke-width:1px;stroke-linecap:butt;stroke-linejoin:miter;stroke-opacity:1"
     d="m 264.56693,506.45671 v 45.35433 l -37.79527,37.79528 h -7.55906 l -15.11811,-15.11812 0,-7.55905 z"
     id="path4879"
     inkscape:connector-curvature="0"
     sodipodi:nodetypes="ccccccc" />
  <path
     style="fill:none;stroke:#000000;stroke-width:1px;stroke-linecap:butt;stroke-linejoin:miter;stroke-opacity:1"
     d="m 423.30709,453.54332 7.55906,-7.55905 h 37.79527 l 45.35433,45.35433 v 45.35433 z"
     id="path4881"
     inkscape:connector-curvature="0"
     sodipodi:nodetypes="cccccc" />
  <path
     style="fill:none;stroke:#000000;stroke-width:1px;stroke-linecap:butt;stroke-linejoin:miter;stroke-opacity:1"
     d="m 529.13386,506.45671 60.47245,60.47244 0,7.55905 -15.11811,15.11812 -7.55906,0 -37.79528,-37.79528 z"
     id="path4883"
     inkscape:connector-curvature="0"
     sodipodi:nodetypes="ccccccc" />
</svg>
