<?xml version="1.0" encoding="UTF-8" standalone="no"?>
<!-- Created with Inkscape (http://www.inkscape.org/) -->

<svg
   xmlns:dc="http://purl.org/dc/elements/1.1/"
   xmlns:cc="http://creativecommons.org/ns#"
   xmlns:rdf="http://www.w3.org/1999/02/22-rdf-syntax-ns#"
   xmlns:svg="http://www.w3.org/2000/svg"
   xmlns="http://www.w3.org/2000/svg"
   xmlns:sodipodi="http://sodipodi.sourceforge.net/DTD/sodipodi-0.dtd"
   xmlns:inkscape="http://www.inkscape.org/namespaces/inkscape"
   version="1.1"
   id="svg3769"
   width="297mm"
   height="210mm"
   viewBox="0 0 1122.5197 793.7008"
   sodipodi:docname="drone sketch.svg"
   inkscape:version="0.92.2 (5c3e80d, 2017-08-06)"
   inkscape:export-filename="/home/ruben/Development/Drones/drone sketch single.png"
   inkscape:export-xdpi="96"
   inkscape:export-ydpi="96">
  <metadata
     id="metadata3775">
    <rdf:RDF>
      <cc:Work
         rdf:about="">
        <dc:format>image/svg+xml</dc:format>
        <dc:type
           rdf:resource="http://purl.org/dc/dcmitype/StillImage" />
        <dc:title />
      </cc:Work>
    </rdf:RDF>
  </metadata>
  <defs
     id="defs3773" />
  <sodipodi:namedview
     pagecolor="#ffffff"
     bordercolor="#666666"
     borderopacity="1"
     objecttolerance="10"
     gridtolerance="10"
     guidetolerance="10"
     inkscape:pageopacity="0"
     inkscape:pageshadow="2"
     inkscape:window-width="1366"
     inkscape:window-height="740"
     id="namedview3771"
     showgrid="true"
     units="mm"
     showguides="true"
     inkscape:guide-bbox="true"
     inkscape:zoom="1"
     inkscape:cx="588.55412"
     inkscape:cy="371.45378"
     inkscape:window-x="0"
     inkscape:window-y="0"
     inkscape:window-maximized="1"
     inkscape:current-layer="svg3769"
     inkscape:lockguides="false">
    <inkscape:grid
       type="xygrid"
       id="grid3779"
       dotted="true"
       units="mm"
       spacingx="3.7795276"
       spacingy="3.7795276"
       empspacing="2" />
    <sodipodi:guide
       position="453.54333,604.72441"
       orientation="0,1"
       id="guide31"
       inkscape:locked="false" />
    <sodipodi:guide
       position="665.19687,740.78742"
       orientation="1,0"
       id="guide43"
       inkscape:locked="false" />
    <sodipodi:guide
       position="226.77166,128.50394"
       orientation="0,1"
       id="guide47"
       inkscape:locked="false" />
    <sodipodi:guide
       position="188.97638,536.69293"
       orientation="1,0"
       id="guide49"
       inkscape:locked="false" />
    <sodipodi:guide
       position="665.19689,566.92913"
       orientation="-0.70710678,0.70710678"
       id="guide51"
       inkscape:locked="false" />
    <sodipodi:guide
       position="627.40161,604.72441"
       orientation="-0.70710678,0.70710678"
       id="guide53"
       inkscape:locked="false" />
    <sodipodi:guide
       position="188.97639,566.92911"
       orientation="0.70710678,0.70710678"
       id="guide57"
       inkscape:locked="false" />
    <sodipodi:guide
       position="226.77167,604.7244"
       orientation="0.70710678,0.70710678"
       id="guide59"
       inkscape:locked="false" />
    <sodipodi:guide
       position="457.32285,366.61418"
       orientation="0,1"
       id="guide61"
       inkscape:locked="false" />
    <sodipodi:guide
       position="427.08663,340.15749"
       orientation="1,0"
       id="guide63"
       inkscape:locked="false" />
    <sodipodi:guide
       position="442.20475,419.52753"
       orientation="0,1"
       id="guide65"
       inkscape:locked="false" />
    <sodipodi:guide
       position="555.59057,427.08663"
       orientation="1,0"
       id="guide67"
       inkscape:locked="false" />
    <sodipodi:guide
       position="544.25199,404.40945"
       orientation="0,1"
       id="guide71"
       inkscape:locked="false" />
    <sodipodi:guide
       position="442.20475,313.70079"
       orientation="0,1"
       id="guide73"
       inkscape:locked="false" />
    <sodipodi:guide
       position="393.07089,355.27559"
       orientation="1,0"
       id="guide159"
       inkscape:locked="false" />
    <sodipodi:guide
       position="461.10239,340.15748"
       orientation="1,0"
       id="guide161"
       inkscape:locked="false" />
  </sodipodi:namedview>
  <path
     style="fill:none;stroke:#000000;stroke-width:1.04306865;stroke-miterlimit:4;stroke-dasharray:3.12920586, 3.12920586;stroke-dashoffset:0;stroke-opacity:1"
     d="m 302.40525,463.3282 166.25621,1.55365 -4e-5,-75.59052 -166.25617,-4e-5 z"
     id="rect3785"
     inkscape:connector-curvature="0"
     sodipodi:nodetypes="ccccc" />
  <path
     style="fill:none;stroke:#000000;stroke-width:1.04641402;stroke-miterlimit:4;stroke-dasharray:3.13924188, 3.13924188;stroke-dashoffset:0;stroke-opacity:1"
     d="m 476.22047,464.88189 h 68.0315 v -75.59056 h -68.0315 z"
     id="rect3785-3"
     inkscape:connector-curvature="0"
     sodipodi:nodetypes="ccccc" />
  <path
     style="fill:none;stroke:#000000;stroke-width:2.00207067;stroke-linejoin:bevel;stroke-miterlimit:4;stroke-dasharray:none;stroke-opacity:1"
     d="M 555.59056,374.17326 V 480.00004 L 517.79527,480 665.19686,627.40157 c 20.34836,0 36.84398,17.44692 36.84398,37.79528 0,20.34836 -16.49561,36.84396 -36.84397,36.84396 -20.34836,0 -37.79529,-16.4956 -37.79529,-36.84396 L 442.20473,480.00003 411.96851,480 226.77166,665.19685 c 0,20.34836 -17.44692,36.84396 -37.79528,36.84396 -20.34836,0 -36.84397,-16.4956 -36.84397,-36.84396 0,-20.34836 16.49561,-37.79528 36.84397,-37.79528 L 336.37796,480.00003 291.02363,480 l 0,-105.82674 h 45.35433 L 188.97638,226.77167 c -20.34836,0 -36.74179,-16.86867 -36.74179,-37.21703 0,-20.34836 16.49561,-36.84397 36.84397,-36.84397 20.34836,0 37.6931,15.91736 37.6931,36.26572 l 185.19683,185.19683 30.23624,4e-5 185.19685,-185.19689 c 0,-20.34836 17.44693,-36.84398 37.79529,-36.84398 20.34836,0 36.84397,16.49561 36.84397,36.84397 0,20.34836 -16.49562,37.79529 -36.84398,37.79529 L 517.79528,374.17326 Z"
     id="rect4757"
     inkscape:connector-curvature="0"
     sodipodi:nodetypes="ccccssccccssccccccssccccssccc" />
  <path
     style="fill:none;stroke:#000000;stroke-width:1px;stroke-linecap:butt;stroke-linejoin:miter;stroke-opacity:1"
     d="m 211.65355,188.97639 c 0,-7.55906 -10.38656,-2.83074 -15.11097,-7.55515 -4.72441,-4.72441 -0.10521,-15.07292 -7.66441,-15.07292 -7.55906,0 -2.7571,10.33711 -7.48151,15.06152 -4.72441,4.72441 -15.09745,0.007 -15.09745,7.56655 0,7.55905 11.39718,3.73265 15.12303,7.56385 3.72782,3.83323 -0.005,15.11332 7.55414,15.11332 7.55906,0 3.80569,-11.37086 7.55487,-15.117 3.78371,-3.78064 15.1223,-0.001 15.1223,-7.56017 z"
     id="path4811"
     inkscape:connector-curvature="0"
     sodipodi:nodetypes="sssssssss" />
  <path
     style="fill:none;stroke:#000000;stroke-width:1px;stroke-linecap:butt;stroke-linejoin:miter;stroke-opacity:1"
     d="m 211.65355,665.19685 c 0,-7.55906 -10.38656,-2.83074 -15.11097,-7.55515 -4.72441,-4.72441 -0.007,-15.12202 -7.5662,-15.12202 -7.55906,0 -2.85531,10.38621 -7.57972,15.11062 -4.72441,4.72441 -15.09745,0.007 -15.09745,7.56655 0,7.55905 11.39718,3.73265 15.12303,7.56385 3.72782,3.83323 -0.005,15.11332 7.55414,15.11332 7.55906,0 3.80569,-11.37086 7.55487,-15.117 3.78371,-3.78064 15.1223,-10e-4 15.1223,-7.56017 z"
     id="path4811-7"
     inkscape:connector-curvature="0"
     sodipodi:nodetypes="sssssssss" />
  <path
     style="fill:none;stroke:#000000;stroke-width:1px;stroke-linecap:butt;stroke-linejoin:miter;stroke-opacity:1"
     d="m 687.87402,188.97639 c 0,-7.55906 -10.38656,-2.83074 -15.11097,-7.55515 -4.72441,-4.72441 -0.007,-15.12202 -7.5662,-15.12202 -7.55906,0 -2.85531,10.38621 -7.57972,15.11062 -4.72441,4.72441 -15.09745,0.007 -15.09745,7.56655 0,7.55905 11.39718,3.73265 15.12303,7.56385 3.72782,3.83323 -0.005,15.11332 7.55414,15.11332 7.55906,0 3.80569,-11.37086 7.55487,-15.117 3.78371,-3.78064 15.1223,-0.001 15.1223,-7.56017 z"
     id="path4811-0"
     inkscape:connector-curvature="0"
     sodipodi:nodetypes="sssssssss" />
  <path
     style="fill:none;stroke:#000000;stroke-width:1px;stroke-linecap:butt;stroke-linejoin:miter;stroke-opacity:1"
     d="m 687.87402,665.19685 c 0,-7.55906 -10.38656,-2.83074 -15.11097,-7.55515 -4.72441,-4.72441 -0.007,-15.12202 -7.5662,-15.12202 -7.55906,0 -2.85531,10.38621 -7.57972,15.11062 -4.72441,4.72441 -15.09745,0.007 -15.09745,7.56655 0,7.55905 11.39718,3.73265 15.12303,7.56385 3.72782,3.83323 -0.005,15.11332 7.55414,15.11332 7.55906,0 3.80569,-11.37086 7.55487,-15.117 3.78371,-3.78064 15.1223,-10e-4 15.1223,-7.56017 z"
     id="path4811-7-9"
     inkscape:connector-curvature="0"
     sodipodi:nodetypes="sssssssss" />
  <path
     style="fill:none;stroke:#000000;stroke-width:1px;stroke-linecap:butt;stroke-linejoin:miter;stroke-opacity:1"
     d="m 461.10236,366.6142 7.55906,7.55906 h 30.23622 l 79.37008,-75.59059 -45.35433,0 z"
     id="path4873-7"
     inkscape:connector-curvature="0"
     sodipodi:nodetypes="cccccc" />
  <path
     style="fill:none;stroke:#000000;stroke-width:1px;stroke-linecap:butt;stroke-linejoin:miter;stroke-opacity:1"
     d="m 548.0315,283.46456 79.37007,-79.37006 h 7.55906 l 15.11811,15.11811 v 7.55906 l -56.69291,56.69289 z"
     id="path4875-5"
     inkscape:connector-curvature="0"
     sodipodi:nodetypes="ccccccc" />
  <path
     style="fill:none;stroke:#000000;stroke-width:1px;stroke-linecap:butt;stroke-linejoin:miter;stroke-opacity:1"
     d="m 393.07088,366.6142 -7.55906,7.55906 H 355.2756 l -79.37008,-75.59059 h 45.35433 z"
     id="path4873-7-6"
     inkscape:connector-curvature="0"
     sodipodi:nodetypes="cccccc" />
  <path
     style="fill:none;stroke:#000000;stroke-width:1px;stroke-linecap:butt;stroke-linejoin:miter;stroke-opacity:1"
     d="M 306.14174,283.46456 226.77167,204.0945 h -7.55906 l -15.11811,15.11811 v 7.55906 l 56.69291,56.69289 z"
     id="path4875-5-2"
     inkscape:connector-curvature="0"
     sodipodi:nodetypes="ccccccc" />
  <path
     style="fill:none;stroke:#000000;stroke-width:1px;stroke-linecap:butt;stroke-linejoin:miter;stroke-opacity:1"
     d="M 461.10235,487.55906 468.66141,480 h 30.23622 l 79.37008,75.59059 h -45.35433 z"
     id="path4873-7-9"
     inkscape:connector-curvature="0"
     sodipodi:nodetypes="cccccc" />
  <path
     style="fill:none;stroke:#000000;stroke-width:1px;stroke-linecap:butt;stroke-linejoin:miter;stroke-opacity:1"
     d="m 548.03149,570.7087 79.37007,79.37006 h 7.55906 l 15.11811,-15.11811 v -7.55906 L 593.38582,570.7087 Z"
     id="path4875-5-1"
     inkscape:connector-curvature="0"
     sodipodi:nodetypes="ccccccc" />
  <path
     style="fill:none;stroke:#000000;stroke-width:1px;stroke-linecap:butt;stroke-linejoin:miter;stroke-opacity:1"
     d="M 393.07087,487.55906 385.51181,480 h -30.23622 l -79.37008,75.59059 h 45.35433 z"
     id="path4873-7-6-2"
     inkscape:connector-curvature="0"
     sodipodi:nodetypes="cccccc" />
  <path
     style="fill:none;stroke:#000000;stroke-width:1px;stroke-linecap:butt;stroke-linejoin:miter;stroke-opacity:1"
     d="m 306.14173,570.7087 -79.37007,79.37006 h -7.55906 l -15.11811,-15.11811 v -7.55906 L 260.7874,570.7087 Z"
     id="path4875-5-2-7"
     inkscape:connector-curvature="0"
     sodipodi:nodetypes="ccccccc" />
</svg>
